<svg width="679" height="40" viewBox="0 0 679 40" fill="none" xmlns="http://www.w3.org/2000/svg">
<path d="M0.6875 39V1.5H31.9619C34.3057 1.5 36.1937 1.69531 37.626 2.08594C39.0583 2.46029 40.1569 3.02181 40.9219 3.77051C41.7031 4.50293 42.224 5.42253 42.4844 6.5293C42.7448 7.63607 42.875 8.9056 42.875 10.3379C42.875 11.3796 42.7855 12.2992 42.6064 13.0967C42.4274 13.8942 42.1914 14.5859 41.8984 15.1719C41.6055 15.7578 41.2718 16.2542 40.8975 16.6611C40.5231 17.0518 40.1406 17.3773 39.75 17.6377C38.8385 18.2562 37.7969 18.6061 36.625 18.6875C38.0898 18.7689 39.3919 19.127 40.5312 19.7617C41.0195 20.0384 41.4915 20.3883 41.9473 20.8115C42.4193 21.2184 42.8343 21.7311 43.1924 22.3496C43.5667 22.9518 43.8678 23.668 44.0957 24.498C44.3236 25.3118 44.4375 26.2559 44.4375 27.3301C44.4375 28.6322 44.3724 29.8285 44.2422 30.9189C44.1283 31.9932 43.8841 32.9616 43.5098 33.8242C43.1354 34.6868 42.5983 35.4437 41.8984 36.0947C41.1986 36.7458 40.2627 37.291 39.0908 37.7305C37.9352 38.1536 36.5111 38.471 34.8184 38.6826C33.1419 38.8942 31.1318 39 28.7881 39H0.6875ZM27.2256 35.0938C29.0485 35.0938 30.6273 35.0693 31.9619 35.0205C33.2965 34.9554 34.4277 34.8333 35.3555 34.6543C36.2832 34.459 37.0319 34.1904 37.6016 33.8486C38.1712 33.4906 38.6107 33.0267 38.9199 32.457C39.2454 31.8711 39.4652 31.1631 39.5791 30.333C39.693 29.5029 39.75 28.502 39.75 27.3301C39.75 26.4186 39.693 25.6292 39.5791 24.9619C39.4652 24.2783 39.2454 23.7087 38.9199 23.2529C38.6107 22.7809 38.1712 22.4066 37.6016 22.1299C37.0319 21.8369 36.2832 21.609 35.3555 21.4463C34.4277 21.2835 33.2965 21.1777 31.9619 21.1289C30.6273 21.0638 29.0485 21.0312 27.2256 21.0312H5.375V35.0938H27.2256ZM27.2256 17.125C28.8206 17.125 30.196 17.0924 31.3516 17.0273C32.5072 16.9622 33.4919 16.8402 34.3057 16.6611C35.1195 16.4821 35.7786 16.238 36.2832 15.9287C36.7878 15.6032 37.1784 15.1882 37.4551 14.6836C37.748 14.179 37.9434 13.5768 38.041 12.877C38.1387 12.1608 38.1875 11.3145 38.1875 10.3379C38.1875 9.29622 38.0736 8.44987 37.8457 7.79883C37.6178 7.14779 37.2109 6.65137 36.625 6.30957C36.0391 5.9515 35.2415 5.71549 34.2324 5.60156C33.2396 5.47135 31.9619 5.40625 30.3994 5.40625H5.375V17.125H27.2256ZM91.3125 1.5H96V39H91.3125V21.8125H56.9375V39H52.25V1.5H56.9375V17.9062H91.3125V1.5ZM142.094 30.4062H112.406L107.719 39H102.25L124.125 1.5H130.375L152.25 39H146.781L142.094 30.4062ZM139.75 26.5L127.25 4.625L114.75 26.5H139.75ZM201.469 39H196.781V31.9688C196.781 30.8294 196.757 29.8529 196.708 29.0391C196.675 28.209 196.537 27.501 196.293 26.915C196.065 26.3291 195.699 25.8571 195.194 25.499C194.69 25.141 193.974 24.8643 193.046 24.6689C192.118 24.4736 190.938 24.3434 189.506 24.2783C188.09 24.1969 186.34 24.1562 184.257 24.1562H163.188V39H158.5V1.5H185.038C187.903 1.5 190.312 1.60579 192.265 1.81738C194.234 2.0127 195.854 2.3138 197.123 2.7207C198.409 3.1276 199.394 3.63216 200.077 4.23438C200.777 4.83659 201.282 5.5446 201.591 6.3584C201.916 7.1722 202.104 8.08366 202.152 9.09277C202.217 10.1019 202.25 11.2168 202.25 12.4375C202.25 14 202.136 15.3753 201.908 16.5635C201.697 17.7354 201.33 18.7363 200.81 19.5664C200.289 20.3965 199.597 21.0638 198.734 21.5684C197.872 22.0566 196.789 22.3984 195.487 22.5938C196.789 22.7891 197.831 23.1309 198.612 23.6191C199.394 24.1074 199.996 24.7422 200.419 25.5234C200.842 26.3047 201.119 27.2324 201.249 28.3066C201.396 29.3809 201.469 30.6016 201.469 31.9688V39ZM163.188 20.25H185.038C187.121 20.25 188.871 20.2174 190.287 20.1523C191.719 20.071 192.899 19.9326 193.827 19.7373C194.755 19.542 195.471 19.2653 195.976 18.9072C196.48 18.5492 196.846 18.0771 197.074 17.4912C197.318 16.9053 197.457 16.2054 197.489 15.3916C197.538 14.5615 197.562 13.5768 197.562 12.4375C197.562 11.3796 197.538 10.4681 197.489 9.70312C197.457 8.93815 197.318 8.29525 197.074 7.77441C196.846 7.25358 196.48 6.83854 195.976 6.5293C195.471 6.22005 194.755 5.98405 193.827 5.82129C192.899 5.64225 191.719 5.52832 190.287 5.47949C188.871 5.43066 187.121 5.40625 185.038 5.40625H163.188V20.25ZM246.781 30.4062H217.094L212.406 39H206.938L228.812 1.5H235.062L256.938 39H251.469L246.781 30.4062ZM244.438 26.5L231.938 4.625L219.438 26.5H244.438ZM303.812 1.5V5.40625H285.062V39H280.375V5.40625H261.625V1.5H303.812ZM361.601 13.2188C361.601 11.2656 361.389 9.7194 360.966 8.58008C360.543 7.44076 359.843 6.57812 358.866 5.99219C357.89 5.40625 356.604 5.0319 355.009 4.86914C353.43 4.70638 351.469 4.625 349.125 4.625H338.163C336.08 4.625 334.322 4.6901 332.89 4.82031C331.474 4.93424 330.302 5.17839 329.374 5.55273C328.446 5.92708 327.73 6.46419 327.226 7.16406C326.721 7.86393 326.355 8.79167 326.127 9.94727C325.899 11.1029 325.769 12.527 325.736 14.2197C325.704 15.8962 325.688 17.9062 325.688 20.25C325.688 22.5938 325.704 24.612 325.736 26.3047C325.785 27.9811 325.924 29.3971 326.151 30.5527C326.379 31.7083 326.737 32.6361 327.226 33.3359C327.73 34.0358 328.446 34.5729 329.374 34.9473C330.302 35.3216 331.474 35.5739 332.89 35.7041C334.322 35.818 336.08 35.875 338.163 35.875H349.125C350.948 35.875 352.519 35.8262 353.837 35.7285C355.155 35.6309 356.278 35.4518 357.206 35.1914C358.134 34.931 358.882 34.5729 359.452 34.1172C360.022 33.6615 360.461 33.0918 360.771 32.4082C361.096 31.7083 361.316 30.8783 361.43 29.918C361.544 28.9414 361.601 27.8021 361.601 26.5H366.288C366.288 28.0625 366.19 29.4785 365.995 30.748C365.8 32.0013 365.45 33.1243 364.945 34.1172C364.457 35.0938 363.798 35.9401 362.968 36.6562C362.138 37.3724 361.088 37.9665 359.818 38.4385C358.549 38.8942 357.035 39.2279 355.277 39.4395C353.52 39.6673 351.469 39.7812 349.125 39.7812H338.163C335.299 39.7812 332.882 39.6022 330.912 39.2441C328.959 38.9023 327.348 38.3815 326.078 37.6816C324.809 36.9655 323.824 36.0703 323.124 34.9961C322.44 33.9219 321.936 32.6605 321.61 31.2119C321.301 29.7633 321.122 28.1276 321.073 26.3047C321.024 24.4818 321 22.4635 321 20.25C321 18.0365 321.024 16.0182 321.073 14.1953C321.122 12.3724 321.301 10.7367 321.61 9.28809C321.936 7.83952 322.44 6.57812 323.124 5.50391C323.824 4.42969 324.809 3.54264 326.078 2.84277C327.348 2.12663 328.959 1.59766 330.912 1.25586C332.882 0.897786 335.299 0.71875 338.163 0.71875H349.125C351.469 0.71875 353.52 0.832682 355.277 1.06055C357.035 1.27214 358.549 1.60579 359.818 2.06152C361.088 2.50098 362.138 3.0625 362.968 3.74609C363.798 4.42969 364.457 5.23535 364.945 6.16309C365.45 7.09082 365.8 8.14062 365.995 9.3125C366.19 10.4844 366.288 11.7865 366.288 13.2188H361.601ZM403.837 0.71875C406.701 0.71875 409.11 0.897786 411.063 1.25586C413.033 1.59766 414.652 2.12663 415.922 2.84277C417.191 3.54264 418.168 4.42969 418.852 5.50391C419.535 6.57812 420.032 7.83952 420.341 9.28809C420.666 10.7367 420.854 12.3724 420.902 14.1953C420.967 16.0182 421 18.0365 421 20.25C421 22.4635 420.967 24.4818 420.902 26.3047C420.854 28.1276 420.666 29.7633 420.341 31.2119C420.032 32.6605 419.535 33.9219 418.852 34.9961C418.168 36.0703 417.191 36.9655 415.922 37.6816C414.652 38.3815 413.033 38.9023 411.063 39.2441C409.11 39.6022 406.701 39.7812 403.837 39.7812H389.726C386.861 39.7812 384.444 39.6022 382.475 39.2441C380.521 38.9023 378.91 38.3815 377.641 37.6816C376.371 36.9655 375.386 36.0703 374.687 34.9961C374.003 33.9219 373.498 32.6605 373.173 31.2119C372.864 29.7633 372.685 28.1276 372.636 26.3047C372.587 24.4818 372.562 22.4635 372.562 20.25C372.562 18.0365 372.587 16.0182 372.636 14.1953C372.685 12.3724 372.864 10.7367 373.173 9.28809C373.498 7.83952 374.003 6.57812 374.687 5.50391C375.386 4.42969 376.371 3.54264 377.641 2.84277C378.91 2.12663 380.521 1.59766 382.475 1.25586C384.444 0.897786 386.861 0.71875 389.726 0.71875H403.837ZM403.837 35.875C405.904 35.875 407.646 35.818 409.062 35.7041C410.494 35.5739 411.674 35.3216 412.602 34.9473C413.529 34.5729 414.245 34.0358 414.75 33.3359C415.255 32.6361 415.621 31.7083 415.849 30.5527C416.076 29.3971 416.207 27.9811 416.239 26.3047C416.288 24.612 416.312 22.5938 416.312 20.25C416.312 17.9062 416.288 15.8962 416.239 14.2197C416.207 12.527 416.076 11.1029 415.849 9.94727C415.621 8.79167 415.255 7.86393 414.75 7.16406C414.245 6.46419 413.529 5.92708 412.602 5.55273C411.69 5.17839 410.518 4.93424 409.086 4.82031C407.67 4.6901 405.92 4.625 403.837 4.625H389.726C387.642 4.625 385.884 4.6901 384.452 4.82031C383.036 4.93424 381.864 5.17839 380.937 5.55273C380.009 5.92708 379.293 6.46419 378.788 7.16406C378.284 7.86393 377.917 8.79167 377.689 9.94727C377.462 11.1029 377.331 12.527 377.299 14.2197C377.266 15.8962 377.25 17.9062 377.25 20.25C377.25 22.5938 377.266 24.612 377.299 26.3047C377.348 27.9811 377.486 29.3971 377.714 30.5527C377.942 31.7083 378.3 32.6361 378.788 33.3359C379.293 34.0358 380.009 34.5729 380.937 34.9473C381.864 35.3216 383.036 35.5739 384.452 35.7041C385.884 35.818 387.642 35.875 389.726 35.875H403.837ZM433.5 39H428.812V1.5H437.04L471.415 34.3125V1.5H476.103V39H469.853L433.5 5.40625V39ZM490.189 39H485.502V1.5H493.729L528.104 34.3125V1.5H532.792V39H526.542L490.189 5.40625V39ZM542.191 39V1.5H579.691V5.40625H546.879V17.9062H578.129V21.8125H546.879V35.0938H579.691V39H542.191ZM624.979 13.2188C624.979 11.2656 624.768 9.7194 624.345 8.58008C623.922 7.44076 623.222 6.57812 622.245 5.99219C621.269 5.40625 619.983 5.0319 618.388 4.86914C616.809 4.70638 614.848 4.625 612.504 4.625H601.542C599.459 4.625 597.701 4.6901 596.269 4.82031C594.853 4.93424 593.681 5.17839 592.753 5.55273C591.825 5.92708 591.109 6.46419 590.604 7.16406C590.1 7.86393 589.734 8.79167 589.506 9.94727C589.278 11.1029 589.148 12.527 589.115 14.2197C589.083 15.8962 589.066 17.9062 589.066 20.25C589.066 22.5938 589.083 24.612 589.115 26.3047C589.164 27.9811 589.302 29.3971 589.53 30.5527C589.758 31.7083 590.116 32.6361 590.604 33.3359C591.109 34.0358 591.825 34.5729 592.753 34.9473C593.681 35.3216 594.853 35.5739 596.269 35.7041C597.701 35.818 599.459 35.875 601.542 35.875H612.504C614.327 35.875 615.897 35.8262 617.216 35.7285C618.534 35.6309 619.657 35.4518 620.585 35.1914C621.513 34.931 622.261 34.5729 622.831 34.1172C623.401 33.6615 623.84 33.0918 624.149 32.4082C624.475 31.7083 624.695 30.8783 624.809 29.918C624.923 28.9414 624.979 27.8021 624.979 26.5H629.667C629.667 28.0625 629.569 29.4785 629.374 30.748C629.179 32.0013 628.829 33.1243 628.324 34.1172C627.836 35.0938 627.177 35.9401 626.347 36.6562C625.517 37.3724 624.467 37.9665 623.197 38.4385C621.928 38.8942 620.414 39.2279 618.656 39.4395C616.898 39.6673 614.848 39.7812 612.504 39.7812H601.542C598.677 39.7812 596.26 39.6022 594.291 39.2441C592.338 38.9023 590.727 38.3815 589.457 37.6816C588.188 36.9655 587.203 36.0703 586.503 34.9961C585.819 33.9219 585.315 32.6605 584.989 31.2119C584.68 29.7633 584.501 28.1276 584.452 26.3047C584.403 24.4818 584.379 22.4635 584.379 20.25C584.379 18.0365 584.403 16.0182 584.452 14.1953C584.501 12.3724 584.68 10.7367 584.989 9.28809C585.315 7.83952 585.819 6.57812 586.503 5.50391C587.203 4.42969 588.188 3.54264 589.457 2.84277C590.727 2.12663 592.338 1.59766 594.291 1.25586C596.26 0.897786 598.677 0.71875 601.542 0.71875H612.504C614.848 0.71875 616.898 0.832682 618.656 1.06055C620.414 1.27214 621.928 1.60579 623.197 2.06152C624.467 2.50098 625.517 3.0625 626.347 3.74609C627.177 4.42969 627.836 5.23535 628.324 6.16309C628.829 7.09082 629.179 8.14062 629.374 9.3125C629.569 10.4844 629.667 11.7865 629.667 13.2188H624.979ZM678.129 1.5V5.40625H659.379V39H654.691V5.40625H635.941V1.5H678.129Z" fill="white"/>
</svg>
